@startuml
class EfContext {
    + EfContext(options:DbContextOptions)
}
class "DbSet`1"<T> {
}
DbContext <|-- EfContext
EfContext --> "Reservations<Reservation>" "DbSet`1"
EfContext --> "Campaigns<Campaign>" "DbSet`1"
EfContext --> "BranchOffices<BranchOffice>" "DbSet`1"
EfContext --> "OrdersShowcases<OrdersShowcases>" "DbSet`1"
EfContext --> "Payments<PaymentModel>" "DbSet`1"
EfContext --> "Orders<Order>" "DbSet`1"
EfContext --> "Showcases<Showcase>" "DbSet`1"
EfContext --> "Locations<Location>" "DbSet`1"
EfContext --> "Products<Product>" "DbSet`1"
EfContext --> "ProductControls<ProductManagement>" "DbSet`1"
EfContext --> "Providers<Provider>" "DbSet`1"
EfContext --> "Warehouses<Warehouse>" "DbSet`1"
EfContext --> "Invoices<Invoice>" "DbSet`1"
EfContext --> "ProductTransitions<ProductTransition>" "DbSet`1"
EfContext --> "ProductsProviders<ProductProvider>" "DbSet`1"
@enduml
